<svg xmlns="http://www.w3.org/2000/svg" viewBox="0 0 353.44 416.51"><defs><style>.cls-1{fill:#78d100;}.cls-2{fill:#333;}</style></defs><title>Icon Forms</title><g id="Layer_2" data-name="Layer 2"><path class="cls-1" d="M252.68,140.24h-30.8a8.49,8.49,0,0,0,0,17h30.8a8.49,8.49,0,1,0,0-17Z"/><path class="cls-1" d="M193.3,140.24H160.49a8.49,8.49,0,1,0,0,17H193.3a8.49,8.49,0,0,0,0-17Z"/><path class="cls-1" d="M131.91,140.24h0a8.49,8.49,0,1,0,0,17h0a8.49,8.49,0,1,0,0-17Z"/><path class="cls-1" d="M186,83.19H143.73a8.49,8.49,0,0,0,0,17H186a8.49,8.49,0,1,0,0-17Z"/><path class="cls-1" d="M152.13,111.76H109.72a8.44,8.44,0,0,0,0,16.88h42.41a8.44,8.44,0,1,0,0-16.88Z"/><path class="cls-1" d="M247.8,111.76H240a8.44,8.44,0,0,0,0,16.88h7.81a8.44,8.44,0,1,0,0-16.88Z"/><path class="cls-1" d="M211.51,111.76h-30.9a8.44,8.44,0,0,0,0,16.88h30.9a8.44,8.44,0,1,0,0-16.88Z"/><path class="cls-1" d="M184.34,264.79l-1.77-3.08a6.76,6.76,0,0,0-11.7,0L136.07,322a7.56,7.56,0,0,0,6.54,11.33h68.22A7.56,7.56,0,0,0,217.37,322Z"/><path class="cls-2" d="M157.25,217.86a7.56,7.56,0,0,0-13.08,0L84.05,322a7.56,7.56,0,0,0,6.54,11.33h24.17c-.23-.83-.41-1.66-.56-2.51,0-.19-.07-.38-.1-.57-.12-.76-.22-1.53-.27-2.3l0-.22c0-.82-.06-1.65,0-2.48,0-.2,0-.4,0-.59,0-.79.09-1.57.19-2.36,0-.05,0-.11,0-.16q.16-1.23.45-2.46c0-.2.09-.4.13-.59.2-.8.41-1.58.68-2.36,0,0,0-.06,0-.09.27-.8.59-1.59.94-2.37.11-.25.22-.5.34-.74.35-.75.73-1.49,1.14-2.21l45.86-79.42a3.16,3.16,0,0,0,0-3.15Z"/><path class="cls-2" d="M209.27,217.86a7.56,7.56,0,0,0-13.08,0l-6.28,10.88a3.16,3.16,0,0,0,0,3.15l45.7,79.16c.42.71,1,1.91,1.39,2.66.09.18.17.36.25.55.34.78.67,1.57.94,2.37l0,.1c.26.77.47,1.55.66,2.34l.15.61c.17.81.33,1.62.44,2.44a1.36,1.36,0,0,0,0,.2q.13,1.15.18,2.31c0,.21,0,.41,0,.62,0,.82,0,1.64-.05,2.46l0,.27c-.06.75-.15,1.5-.27,2.24,0,.2-.07.41-.1.61-.15.84-.34,1.67-.56,2.49h24.17A7.56,7.56,0,0,0,269.39,322Z"/><path class="cls-1" d="M225.72,168.82H128.17a8.75,8.75,0,0,0-8.79,7.44,8.5,8.5,0,0,0,8.43,9.53h28.63a.1.1,0,0,1,.07,0c.6,1.11,13.63,25.18,15.63,26.47a6.78,6.78,0,0,0,9.15,0c2-1.29,15-25.36,15.64-26.47a.1.1,0,0,1,.07,0h28.35a8.72,8.72,0,0,0,8.79-7.43A8.5,8.5,0,0,0,225.72,168.82Z"/></g></svg>